<svg width="22" height="22" viewBox="0 0 22 22" fill="none" xmlns="http://www.w3.org/2000/svg">
<path d="M4.83187 16.5625H6.70656V10.625H4.83187V16.5625ZM14.5434 16.5625H16.4181V4.375H14.5434V16.5625ZM9.6875 16.5625H11.5625V13.125H9.6875V16.5625ZM9.6875 10.625H11.5625V8.125H9.6875V10.625ZM2.25969 21.25C1.62823 21.25 1.09375 21.0313 0.65625 20.5938C0.21875 20.1563 0 19.6218 0 18.9903V2.25969C0 1.62823 0.21875 1.09375 0.65625 0.65625C1.09375 0.21875 1.62823 0 2.25969 0H18.9903C19.6218 0 20.1563 0.21875 20.5938 0.65625C21.0313 1.09375 21.25 1.62823 21.25 2.25969V18.9903C21.25 19.6218 21.0313 20.1563 20.5938 20.5938C20.1563 21.0313 19.6218 21.25 18.9903 21.25H2.25969ZM2.25969 19.375H18.9903C19.0866 19.375 19.1747 19.3349 19.2547 19.2547C19.3349 19.1747 19.375 19.0866 19.375 18.9903V2.25969C19.375 2.16344 19.3349 2.07531 19.2547 1.99531C19.1747 1.9151 19.0866 1.875 18.9903 1.875H2.25969C2.16344 1.875 2.07531 1.9151 1.99531 1.99531C1.9151 2.07531 1.875 2.16344 1.875 2.25969V18.9903C1.875 19.0866 1.9151 19.1747 1.99531 19.2547C2.07531 19.3349 2.16344 19.375 2.25969 19.375Z" fill="white"/>
</svg>
