<svg width="30" height="30" viewBox="0 0 30 30" fill="none" xmlns="http://www.w3.org/2000/svg">
<mask id="mask0_29_1744" style="mask-type:alpha" maskUnits="userSpaceOnUse" x="0" y="0" width="30" height="30">
<rect width="30" height="30" fill="#D9D9D9"/>
</mask>
<g mask="url(#mask0_29_1744)">
<path d="M5 14.5122C5 16.0714 5.52479 17.4022 6.57438 18.5047C7.62417 19.6074 8.92469 20.1972 10.4759 20.2741H11.1853L9.1275 18.2044L10.4447 16.8872L14.7956 21.25L10.4447 25.625L9.1275 24.3078L11.2238 22.1875H10.5144C8.43917 22.1106 6.68875 21.333 5.26312 19.8547C3.83771 18.3761 3.125 16.6017 3.125 14.5312C3.125 12.3967 3.86344 10.587 5.34031 9.10219C6.81698 7.6174 8.61865 6.875 10.7453 6.875H14.8078V8.75H10.7453C9.15073 8.75 7.79448 9.30771 6.67656 10.4231C5.55885 11.5385 5 12.9016 5 14.5122ZM17.5481 22.1875V20.3125H26.875V22.1875H17.5481ZM17.5481 15.4688V13.5938H26.875V15.4688H17.5481ZM17.5481 8.75V6.875H26.875V8.75H17.5481Z" fill="#273E4B"/>
</g>
</svg>
