<svg width="24" height="24" viewBox="0 0 24 24" fill="none" xmlns="http://www.w3.org/2000/svg">
<mask id="mask0_29_1796" style="mask-type:alpha" maskUnits="userSpaceOnUse" x="0" y="0" width="24" height="24">
<rect width="24" height="24" fill="#D9D9D9"/>
</mask>
<g mask="url(#mask0_29_1796)">
<path d="M2.13475 19.6345C1.68725 19.6345 1.30292 19.4739 0.98175 19.1528C0.660583 18.8317 0.5 18.4475 0.5 18H4.30775C3.80258 18 3.375 17.825 3.025 17.475C2.675 17.125 2.5 16.6974 2.5 16.1923V5.30775C2.5 4.80258 2.675 4.375 3.025 4.025C3.375 3.675 3.80258 3.5 4.30775 3.5H19.6923C20.1974 3.5 20.625 3.675 20.975 4.025C21.325 4.375 21.5 4.80258 21.5 5.30775V16.1923C21.5 16.6974 21.325 17.125 20.975 17.475C20.625 17.825 20.1974 18 19.6923 18H23.5C23.5 18.4475 23.3394 18.8317 23.0182 19.1528C22.6971 19.4739 22.3127 19.6345 21.8652 19.6345H2.13475ZM12 18.8845C12.2257 18.8845 12.4167 18.8063 12.573 18.65C12.7295 18.4937 12.8077 18.3027 12.8077 18.077C12.8077 17.8513 12.7295 17.6603 12.573 17.5038C12.4167 17.3474 12.2257 17.2693 12 17.2693C11.7743 17.2693 11.5833 17.3474 11.427 17.5038C11.2705 17.6603 11.1923 17.8513 11.1923 18.077C11.1923 18.3027 11.2705 18.4937 11.427 18.65C11.5833 18.8063 11.7743 18.8845 12 18.8845ZM4.30775 16.5H19.6923C19.7693 16.5 19.8398 16.468 19.9038 16.404C19.9679 16.3398 20 16.2692 20 16.1923V5.30775C20 5.23075 19.9679 5.16025 19.9038 5.09625C19.8398 5.03208 19.7693 5 19.6923 5H4.30775C4.23075 5 4.16025 5.03208 4.09625 5.09625C4.03208 5.16025 4 5.23075 4 5.30775V16.1923C4 16.2692 4.03208 16.3398 4.09625 16.404C4.16025 16.468 4.23075 16.5 4.30775 16.5Z" fill="#273E4B"/>
</g>
</svg>
