<svg width="30" height="30" viewBox="0 0 30 30" fill="none" xmlns="http://www.w3.org/2000/svg">
<mask id="mask0_29_1720" style="mask-type:alpha" maskUnits="userSpaceOnUse" x="0" y="0" width="30" height="30">
<rect width="30" height="30" fill="#D9D9D9"/>
</mask>
<g mask="url(#mask0_29_1720)">
<path d="M12.6922 22.1875V20.3125H14.4616L18.0072 16.25L14.4616 12.1875H12.2306L10.2306 22.685C10.0321 23.7508 9.65677 24.5594 9.10469 25.1106C8.55261 25.6619 7.83979 25.9375 6.96625 25.9375C6.13292 25.9375 5.45271 25.7116 4.92563 25.2597C4.39834 24.8076 4.13469 24.2091 4.13469 23.4641C4.13469 22.9016 4.28167 22.4492 4.57563 22.1069C4.86979 21.7648 5.24365 21.5938 5.69719 21.5938C6.1299 21.5938 6.49844 21.7428 6.80281 22.0409C7.1074 22.3391 7.25969 22.698 7.25969 23.1178C7.25969 23.2861 7.2224 23.434 7.14781 23.5613C7.07323 23.6888 6.98146 23.7885 6.8725 23.8606C6.9125 23.9006 6.96865 23.9347 7.04094 23.9628C7.11302 23.9907 7.19313 24.0047 7.28125 24.0047C7.55375 23.992 7.77656 23.8667 7.94969 23.6287C8.12261 23.3906 8.26198 23.024 8.36781 22.5287L10.3175 12.1875H6.68281V10.3125H10.6659L11.2981 6.89437C11.46 6.01458 11.8226 5.3226 12.3859 4.81844C12.9493 4.31448 13.6403 4.0625 14.4591 4.0625C15.2797 4.0625 15.9535 4.30333 16.4806 4.785C17.0079 5.26646 17.2716 5.87333 17.2716 6.60563C17.2716 7.1425 17.1246 7.58208 16.8306 7.92438C16.5365 8.26646 16.1626 8.4375 15.7091 8.4375C15.2764 8.4375 14.9078 8.29042 14.6034 7.99625C14.2989 7.70229 14.1466 7.33896 14.1466 6.90625C14.1466 6.73792 14.1839 6.5901 14.2584 6.46281C14.333 6.33531 14.4288 6.23552 14.5456 6.16344C14.5056 6.11531 14.4435 6.07521 14.3594 6.04313C14.2752 6.01125 14.1891 5.99531 14.1009 5.99531C13.8397 6.02094 13.6318 6.13552 13.4772 6.33906C13.3226 6.5426 13.2044 6.84385 13.1225 7.24281L12.5913 10.3125H18.3172V12.1875H16.9447L19.2547 14.8247L21.565 12.1875H20.1922V10.3125H25.8172V12.1875H24.0481L20.5025 16.25L24.06 20.3125H25.8172V22.1875H20.1922V20.3125H21.565L19.2547 17.6562L16.9447 20.3125H18.3172V22.1875H12.6922Z" fill="#273E4B"/>
</g>
</svg>
