<svg width="30" height="30" viewBox="0 0 30 30" fill="none" xmlns="http://www.w3.org/2000/svg">
<mask id="mask0_29_1726" style="mask-type:alpha" maskUnits="userSpaceOnUse" x="0" y="0" width="30" height="30">
<rect width="30" height="30" fill="#D9D9D9"/>
</mask>
<g mask="url(#mask0_29_1726)">
<path d="M10.0722 20H16.25V13.4375H9.6875V19.6153C9.6875 19.7116 9.7276 19.7997 9.80781 19.8797C9.88781 19.9599 9.97594 20 10.0722 20ZM9.6875 11.5625H24.6875V5.38469C24.6875 5.28844 24.6474 5.20031 24.5672 5.12031C24.4872 5.0401 24.3991 5 24.3028 5H10.0722C9.97594 5 9.88781 5.0401 9.80781 5.12031C9.7276 5.20031 9.6875 5.28844 9.6875 5.38469V11.5625ZM18.125 20H24.3028C24.3991 20 24.4872 19.9599 24.5672 19.8797C24.6474 19.7997 24.6875 19.7116 24.6875 19.6153V13.4375H18.125V20ZM10.0722 21.875C9.44073 21.875 8.90625 21.6562 8.46875 21.2188C8.03125 20.7812 7.8125 20.2468 7.8125 19.6153V5.38469C7.8125 4.75323 8.03125 4.21875 8.46875 3.78125C8.90625 3.34375 9.44073 3.125 10.0722 3.125H24.3028C24.9343 3.125 25.4688 3.34375 25.9062 3.78125C26.3438 4.21875 26.5625 4.75323 26.5625 5.38469V19.6153C26.5625 20.2468 26.3438 20.7812 25.9062 21.2188C25.4688 21.6562 24.9343 21.875 24.3028 21.875H10.0722ZM5.69719 26.25C5.06573 26.25 4.53125 26.0312 4.09375 25.5938C3.65625 25.1562 3.4375 24.6218 3.4375 23.9903V7.88469H5.3125V23.9903C5.3125 24.0866 5.3526 24.1747 5.43281 24.2547C5.51281 24.3349 5.60094 24.375 5.69719 24.375H21.8028V26.25H5.69719Z" fill="#273E4B"/>
</g>
</svg>
