<svg width="346" height="40" viewBox="0 0 346 40" fill="none" xmlns="http://www.w3.org/2000/svg">
<g opacity="0.5">
<mask id="mask0_26_1158" style="mask-type:alpha" maskUnits="userSpaceOnUse" x="18" y="0" width="41" height="40">
<rect x="18.5" width="40" height="40" fill="#D9D9D9"/>
</mask>
<g mask="url(#mask0_26_1158)">
<path d="M39.75 34.1666V21.2499H52.6666V34.1666H39.75ZM39.75 18.7499V5.83325H52.6666V18.7499H39.75ZM24.3333 18.7499V5.83325H37.25V18.7499H24.3333ZM24.3333 34.1666V21.2499H37.25V34.1666H24.3333Z" fill="#273E4B"/>
</g>
</g>
<path d="M75.5508 7.03613H80.2334L88.334 26.8262H88.6245L96.7422 7.03613H101.493V32.5H97.7334V14.0771H97.4941L89.9575 32.4658H86.9155L79.4644 14.0601H79.2251V32.5H75.5508V7.03613ZM114.123 32.9102C112.22 32.9102 110.568 32.6139 109.167 32.0215C107.777 31.4176 106.688 30.5575 105.902 29.4409C105.116 28.3244 104.678 26.9971 104.586 25.459H108.449C108.528 26.3818 108.825 27.1509 109.337 27.7661C109.861 28.37 110.539 28.82 111.371 29.1162C112.203 29.4124 113.114 29.5605 114.105 29.5605C115.188 29.5605 116.156 29.3896 117.011 29.0479C117.865 28.7061 118.532 28.2275 119.01 27.6123C119.5 26.9857 119.745 26.2565 119.745 25.4248C119.745 24.6729 119.529 24.0576 119.096 23.5791C118.674 23.1006 118.099 22.7075 117.37 22.3999C116.64 22.0809 115.82 21.8018 114.909 21.5625L111.918 20.7422C109.867 20.1953 108.249 19.3807 107.064 18.2983C105.88 17.2046 105.287 15.7747 105.287 14.0088C105.287 12.5391 105.68 11.2573 106.466 10.1636C107.264 9.06982 108.34 8.22103 109.696 7.61719C111.063 7.00195 112.596 6.69434 114.293 6.69434C116.025 6.69434 117.546 7.00195 118.856 7.61719C120.178 8.22103 121.221 9.05273 121.984 10.1123C122.759 11.1605 123.163 12.3625 123.197 13.7183H119.472C119.335 12.5448 118.788 11.6333 117.831 10.9839C116.885 10.3345 115.678 10.0098 114.208 10.0098C113.183 10.0098 112.283 10.175 111.508 10.5054C110.744 10.8244 110.152 11.2687 109.73 11.8384C109.32 12.408 109.115 13.0632 109.115 13.8037C109.115 14.6012 109.36 15.2507 109.85 15.752C110.351 16.2533 110.955 16.652 111.662 16.9482C112.379 17.2331 113.069 17.4666 113.729 17.6489L116.208 18.3154C117.016 18.5205 117.848 18.7939 118.703 19.1357C119.557 19.4775 120.349 19.9276 121.078 20.4858C121.819 21.0327 122.411 21.7163 122.855 22.5366C123.311 23.3455 123.539 24.3254 123.539 25.4761C123.539 26.9002 123.169 28.1763 122.428 29.3042C121.688 30.4207 120.617 31.3037 119.215 31.9531C117.814 32.5911 116.116 32.9102 114.123 32.9102ZM134.442 32.5V7.03613H150.421V10.3345H138.288V18.0078H149.567V21.2891H138.288V29.2017H150.541V32.5H134.442ZM156.71 13.3936L160.897 20.8447L165.153 13.3936H169.237L163.29 22.9639L169.271 32.5H165.221L160.897 25.3564L156.642 32.5H152.558L158.488 22.9639L152.626 13.3936H156.71ZM178.893 32.8931C177.059 32.8931 175.475 32.4715 174.142 31.6284C172.809 30.7853 171.784 29.6232 171.066 28.1421C170.348 26.661 169.989 24.9634 169.989 23.0493C169.989 21.1011 170.354 19.3864 171.083 17.9053C171.824 16.4128 172.855 15.2507 174.176 14.4189C175.509 13.5758 177.07 13.1543 178.859 13.1543C180.317 13.1543 181.61 13.422 182.738 13.9575C183.878 14.4816 184.795 15.2279 185.49 16.1963C186.196 17.1647 186.612 18.2926 186.737 19.5801H183.114C182.989 18.9762 182.744 18.4237 182.379 17.9224C182.026 17.4211 181.559 17.0223 180.978 16.7261C180.397 16.4299 179.708 16.2817 178.91 16.2817C177.873 16.2817 176.968 16.5552 176.193 17.1021C175.43 17.6375 174.831 18.4066 174.398 19.4092C173.965 20.4118 173.749 21.5967 173.749 22.9639C173.749 24.3424 173.96 25.5444 174.381 26.5698C174.803 27.5952 175.401 28.387 176.176 28.9453C176.962 29.4922 177.873 29.7656 178.91 29.7656C179.981 29.7656 180.893 29.4694 181.645 28.877C182.408 28.2845 182.898 27.4756 183.114 26.4502H186.737C186.612 27.6921 186.213 28.7972 185.541 29.7656C184.869 30.734 183.969 31.4974 182.841 32.0557C181.713 32.6139 180.397 32.8931 178.893 32.8931ZM197.589 32.8931C195.721 32.8931 194.103 32.4886 192.736 31.6797C191.369 30.8708 190.315 29.7314 189.574 28.2617C188.845 26.7806 188.48 25.0545 188.48 23.0835C188.48 21.1239 188.839 19.3978 189.557 17.9053C190.286 16.4128 191.306 15.2507 192.616 14.4189C193.938 13.5758 195.487 13.1543 197.265 13.1543C198.347 13.1543 199.395 13.3309 200.409 13.6841C201.423 14.0373 202.335 14.5955 203.144 15.3589C203.952 16.1222 204.59 17.1134 205.058 18.3325C205.536 19.5516 205.775 21.0213 205.775 22.7417V24.0747H190.583V21.2891H203.861L202.135 22.2119C202.135 21.0384 201.953 20.0016 201.588 19.1016C201.224 18.2015 200.677 17.5008 199.948 16.9995C199.23 16.4868 198.336 16.2305 197.265 16.2305C196.194 16.2305 195.277 16.4868 194.513 16.9995C193.761 17.5122 193.186 18.1901 192.787 19.0332C192.388 19.8763 192.189 20.7992 192.189 21.8018V23.6987C192.189 25.009 192.417 26.1198 192.873 27.0312C193.328 27.9427 193.961 28.6377 194.77 29.1162C195.59 29.5947 196.541 29.834 197.624 29.834C198.33 29.834 198.968 29.7314 199.538 29.5264C200.119 29.3213 200.62 29.0137 201.042 28.6035C201.463 28.1934 201.782 27.6864 201.999 27.0825L205.519 27.749C205.234 28.7744 204.733 29.6745 204.015 30.4492C203.297 31.224 202.392 31.8278 201.298 32.2607C200.215 32.6823 198.979 32.8931 197.589 32.8931ZM212.064 7.03613V32.5H208.373V7.03613H212.064Z" fill="#273E4B"/>
<path d="M231.427 32.8931C229.639 32.8931 228.072 32.4829 226.728 31.6626C225.395 30.8423 224.358 29.6916 223.617 28.2104C222.888 26.7293 222.523 25.009 222.523 23.0493C222.523 21.0669 222.888 19.3351 223.617 17.854C224.358 16.3615 225.395 15.2051 226.728 14.3848C228.072 13.5645 229.639 13.1543 231.427 13.1543C233.227 13.1543 234.794 13.5645 236.127 14.3848C237.46 15.2051 238.497 16.3615 239.237 17.854C239.978 19.3351 240.348 21.0669 240.348 23.0493C240.348 25.009 239.978 26.7293 239.237 28.2104C238.497 29.6916 237.46 30.8423 236.127 31.6626C234.794 32.4829 233.227 32.8931 231.427 32.8931ZM231.427 29.7656C232.601 29.7656 233.569 29.458 234.333 28.8428C235.096 28.2275 235.66 27.4129 236.024 26.3989C236.4 25.3735 236.588 24.257 236.588 23.0493C236.588 21.8188 236.4 20.6909 236.024 19.6655C235.66 18.6401 235.096 17.8198 234.333 17.2046C233.569 16.5894 232.601 16.2817 231.427 16.2817C230.265 16.2817 229.302 16.5894 228.539 17.2046C227.787 17.8198 227.223 18.6401 226.847 19.6655C226.471 20.6909 226.283 21.8188 226.283 23.0493C226.283 24.257 226.471 25.3735 226.847 26.3989C227.223 27.4129 227.787 28.2275 228.539 28.8428C229.302 29.458 230.265 29.7656 231.427 29.7656ZM255.951 21.3403V24.5532H245.612V21.3403H255.951ZM246.637 13.3936V32.5H243.031V13.3936H246.637ZM258.549 13.3936V32.5H254.926V13.3936H258.549ZM260.583 32.5L260.565 29.2871H261.232C261.95 29.2757 262.514 29.0649 262.924 28.6548C263.345 28.2332 263.659 27.487 263.864 26.416C264.08 25.3451 264.223 23.8298 264.291 21.8701L264.633 13.3936H277.946V32.5H274.306V16.6064H268.051L267.743 23.1177C267.675 24.6899 267.521 26.0628 267.282 27.2363C267.042 28.4098 266.689 29.3896 266.222 30.1758C265.755 30.9505 265.157 31.5316 264.428 31.9189C263.699 32.3063 262.81 32.5 261.762 32.5H260.583ZM287.021 32.9102C285.813 32.9102 284.719 32.688 283.739 32.2437C282.759 31.7879 281.985 31.1271 281.415 30.2612C280.845 29.3953 280.561 28.3415 280.561 27.0996C280.561 26.0173 280.766 25.1343 281.176 24.4507C281.597 23.7557 282.161 23.2031 282.868 22.793C283.574 22.3828 284.36 22.0752 285.226 21.8701C286.092 21.665 286.981 21.5055 287.892 21.3916C289.043 21.2663 289.971 21.158 290.678 21.0669C291.384 20.9757 291.897 20.8333 292.216 20.6396C292.546 20.4346 292.711 20.1099 292.711 19.6655V19.5801C292.711 18.4977 292.404 17.6603 291.789 17.0679C291.185 16.4754 290.285 16.1792 289.088 16.1792C287.847 16.1792 286.861 16.4526 286.132 16.9995C285.414 17.535 284.918 18.1445 284.645 18.8281L281.142 18.0249C281.563 16.8628 282.173 15.9285 282.97 15.2222C283.779 14.5044 284.702 13.9803 285.739 13.6499C286.787 13.3195 287.881 13.1543 289.02 13.1543C289.783 13.1543 290.592 13.2454 291.447 13.4277C292.301 13.5986 293.104 13.9233 293.856 14.4019C294.62 14.869 295.241 15.5412 295.719 16.4185C296.198 17.2957 296.437 18.4294 296.437 19.8193V32.5H292.797V29.8853H292.66C292.432 30.3524 292.073 30.8195 291.583 31.2866C291.105 31.7537 290.49 32.1411 289.738 32.4487C288.986 32.7563 288.08 32.9102 287.021 32.9102ZM287.824 29.9365C288.861 29.9365 289.743 29.7371 290.473 29.3384C291.202 28.9282 291.76 28.3927 292.147 27.7319C292.535 27.0711 292.729 26.3704 292.729 25.6299V23.1519C292.592 23.2772 292.335 23.3968 291.959 23.5107C291.583 23.6247 291.156 23.7215 290.678 23.8013C290.199 23.881 289.732 23.9551 289.276 24.0234C288.821 24.0804 288.439 24.126 288.131 24.1602C287.414 24.2627 286.758 24.4222 286.166 24.6387C285.574 24.8438 285.095 25.1514 284.73 25.5615C284.377 25.9603 284.201 26.4901 284.201 27.1509C284.201 28.0737 284.542 28.7687 285.226 29.2358C285.91 29.703 286.776 29.9365 287.824 29.9365ZM303.615 27.2705L312.04 13.3936H316.039V32.5H312.416V18.606L304.025 32.5H300.009V13.3936H303.615V27.2705ZM307.99 11.1719C306.361 11.1719 305.039 10.7275 304.025 9.83887C303.011 8.9388 302.504 7.771 302.504 6.33545H305.563C305.563 7.06462 305.785 7.65706 306.229 8.11279C306.674 8.55713 307.261 8.7793 307.99 8.7793C308.719 8.7793 309.306 8.55713 309.75 8.11279C310.194 7.65706 310.417 7.06462 310.417 6.33545H313.476C313.476 7.771 312.969 8.9388 311.955 9.83887C310.941 10.7275 309.619 11.1719 307.99 11.1719ZM332.514 21.3403V24.5532H322.174V21.3403H332.514ZM323.2 13.3936V32.5H319.594V13.3936H323.2ZM335.111 13.3936V32.5H331.488V13.3936H335.111Z" fill="#273E4B" fill-opacity="0.5"/>
</svg>
