<svg width="200" height="24" viewBox="0 0 200 24" fill="none" xmlns="http://www.w3.org/2000/svg">
<g opacity="0.5">
<mask id="mask0_26_794" style="mask-type:alpha" maskUnits="userSpaceOnUse" x="10" y="0" width="24" height="24">
<rect x="10" width="24" height="24" fill="#D9D9D9"/>
</mask>
<g mask="url(#mask0_26_794)">
<path d="M22.75 20.5V12.75H30.5V20.5H22.75ZM22.75 11.25V3.5H30.5V11.25H22.75ZM13.5 11.25V3.5H21.25V11.25H13.5ZM13.5 20.5V12.75H21.25V20.5H13.5Z" fill="#273E4B"/>
</g>
</g>
<path d="M45.1719 4.94922H47.8477L52.4766 16.2578H52.6426L57.2812 4.94922H59.9961V19.5H57.8477V8.97266H57.7109L53.4043 19.4805H51.666L47.4082 8.96289H47.2715V19.5H45.1719V4.94922ZM67.2129 19.7344C66.1257 19.7344 65.1816 19.5651 64.3809 19.2266C63.5866 18.8815 62.9648 18.39 62.5156 17.752C62.0664 17.1139 61.8158 16.3555 61.7637 15.4766H63.9707C64.0163 16.0039 64.1855 16.4434 64.4785 16.7949C64.778 17.14 65.1654 17.3971 65.6406 17.5664C66.1159 17.7357 66.6367 17.8203 67.2031 17.8203C67.8216 17.8203 68.375 17.7227 68.8633 17.5273C69.3516 17.332 69.7324 17.0586 70.0059 16.707C70.2858 16.349 70.4258 15.9323 70.4258 15.457C70.4258 15.0273 70.3021 14.6758 70.0547 14.4023C69.8138 14.1289 69.485 13.9043 69.0684 13.7285C68.6517 13.5462 68.1829 13.3867 67.6621 13.25L65.9531 12.7812C64.7812 12.4688 63.8568 12.0033 63.1797 11.3848C62.5026 10.7598 62.1641 9.94271 62.1641 8.93359C62.1641 8.09375 62.3887 7.36133 62.8379 6.73633C63.2936 6.11133 63.9089 5.6263 64.6836 5.28125C65.4648 4.92969 66.3405 4.75391 67.3105 4.75391C68.3001 4.75391 69.1693 4.92969 69.918 5.28125C70.6732 5.6263 71.2689 6.10156 71.7051 6.70703C72.1478 7.30599 72.3789 7.99284 72.3984 8.76758H70.2695C70.1914 8.09701 69.8789 7.57617 69.332 7.20508C68.7917 6.83398 68.1016 6.64844 67.2617 6.64844C66.6758 6.64844 66.1615 6.74284 65.7188 6.93164C65.2826 7.11393 64.944 7.36784 64.7031 7.69336C64.4688 8.01888 64.3516 8.39323 64.3516 8.81641C64.3516 9.27214 64.4915 9.64323 64.7715 9.92969C65.0579 10.2161 65.403 10.444 65.8066 10.6133C66.2168 10.776 66.6107 10.9095 66.9883 11.0137L68.4043 11.3945C68.8665 11.5117 69.3418 11.668 69.8301 11.8633C70.3184 12.0586 70.7708 12.3158 71.1875 12.6348C71.6107 12.9473 71.9492 13.3379 72.2031 13.8066C72.4635 14.2689 72.5938 14.8288 72.5938 15.4863C72.5938 16.3001 72.3822 17.0293 71.959 17.6738C71.5358 18.3118 70.9238 18.8164 70.123 19.1875C69.3223 19.5521 68.3522 19.7344 67.2129 19.7344ZM78.8242 19.5V4.94922H87.9551V6.83398H81.0215V11.2188H87.4668V13.0938H81.0215V17.6152H88.0234V19.5H78.8242ZM91.5488 8.58203L93.9414 12.8398L96.373 8.58203H98.707L95.3086 14.0508L98.7266 19.5H96.4121L93.9414 15.418L91.5098 19.5H89.1758L92.5645 14.0508L89.2148 8.58203H91.5488ZM104.225 19.7246C103.176 19.7246 102.271 19.4837 101.51 19.002C100.748 18.5202 100.162 17.8561 99.752 17.0098C99.3418 16.1634 99.1367 15.1934 99.1367 14.0996C99.1367 12.9863 99.3451 12.0065 99.7617 11.1602C100.185 10.3073 100.774 9.64323 101.529 9.16797C102.291 8.6862 103.183 8.44531 104.205 8.44531C105.038 8.44531 105.777 8.59831 106.422 8.9043C107.073 9.20378 107.597 9.63021 107.994 10.1836C108.398 10.737 108.635 11.3815 108.707 12.1172H106.637C106.565 11.7721 106.425 11.4564 106.217 11.1699C106.015 10.8835 105.748 10.6556 105.416 10.4863C105.084 10.3171 104.69 10.2324 104.234 10.2324C103.642 10.2324 103.124 10.3887 102.682 10.7012C102.245 11.0072 101.904 11.4466 101.656 12.0195C101.409 12.5924 101.285 13.2695 101.285 14.0508C101.285 14.8385 101.406 15.5254 101.646 16.1113C101.887 16.6973 102.229 17.1497 102.672 17.4688C103.121 17.7812 103.642 17.9375 104.234 17.9375C104.846 17.9375 105.367 17.7682 105.797 17.4297C106.233 17.0911 106.513 16.6289 106.637 16.043H108.707C108.635 16.7526 108.408 17.3841 108.023 17.9375C107.639 18.4909 107.125 18.9271 106.48 19.2461C105.836 19.5651 105.084 19.7246 104.225 19.7246ZM114.908 19.7246C113.84 19.7246 112.916 19.4935 112.135 19.0312C111.354 18.569 110.751 17.918 110.328 17.0781C109.911 16.2318 109.703 15.2454 109.703 14.1191C109.703 12.9993 109.908 12.013 110.318 11.1602C110.735 10.3073 111.318 9.64323 112.066 9.16797C112.822 8.6862 113.707 8.44531 114.723 8.44531C115.341 8.44531 115.94 8.54622 116.52 8.74805C117.099 8.94987 117.62 9.26888 118.082 9.70508C118.544 10.1413 118.909 10.7077 119.176 11.4043C119.449 12.1009 119.586 12.9408 119.586 13.9238V14.6855H110.904V13.0938H118.492L117.506 13.6211C117.506 12.9505 117.402 12.3581 117.193 11.8438C116.985 11.3294 116.673 10.929 116.256 10.6426C115.846 10.3496 115.335 10.2031 114.723 10.2031C114.111 10.2031 113.587 10.3496 113.15 10.6426C112.721 10.9355 112.392 11.3229 112.164 11.8047C111.936 12.2865 111.822 12.8138 111.822 13.3867V14.4707C111.822 15.2194 111.952 15.8542 112.213 16.375C112.473 16.8958 112.835 17.293 113.297 17.5664C113.766 17.8398 114.309 17.9766 114.928 17.9766C115.331 17.9766 115.696 17.918 116.021 17.8008C116.354 17.6836 116.64 17.5078 116.881 17.2734C117.122 17.0391 117.304 16.7493 117.428 16.4043L119.439 16.7852C119.277 17.3711 118.99 17.8854 118.58 18.3281C118.17 18.7708 117.652 19.1159 117.027 19.3633C116.409 19.6042 115.702 19.7246 114.908 19.7246ZM123.18 4.94922V19.5H121.07V4.94922H123.18Z" fill="#273E4B"/>
<path d="M134.244 19.7246C133.222 19.7246 132.327 19.4902 131.559 19.0215C130.797 18.5527 130.204 17.8952 129.781 17.0488C129.365 16.2025 129.156 15.2194 129.156 14.0996C129.156 12.9668 129.365 11.9772 129.781 11.1309C130.204 10.278 130.797 9.61719 131.559 9.14844C132.327 8.67969 133.222 8.44531 134.244 8.44531C135.273 8.44531 136.168 8.67969 136.93 9.14844C137.691 9.61719 138.284 10.278 138.707 11.1309C139.13 11.9772 139.342 12.9668 139.342 14.0996C139.342 15.2194 139.13 16.2025 138.707 17.0488C138.284 17.8952 137.691 18.5527 136.93 19.0215C136.168 19.4902 135.273 19.7246 134.244 19.7246ZM134.244 17.9375C134.915 17.9375 135.468 17.7617 135.904 17.4102C136.34 17.0586 136.663 16.5931 136.871 16.0137C137.086 15.4277 137.193 14.7897 137.193 14.0996C137.193 13.3965 137.086 12.752 136.871 12.166C136.663 11.5801 136.34 11.1113 135.904 10.7598C135.468 10.4082 134.915 10.2324 134.244 10.2324C133.58 10.2324 133.03 10.4082 132.594 10.7598C132.164 11.1113 131.842 11.5801 131.627 12.166C131.412 12.752 131.305 13.3965 131.305 14.0996C131.305 14.7897 131.412 15.4277 131.627 16.0137C131.842 16.5931 132.164 17.0586 132.594 17.4102C133.03 17.7617 133.58 17.9375 134.244 17.9375ZM148.258 13.123V14.959H142.35V13.123H148.258ZM142.936 8.58203V19.5H140.875V8.58203H142.936ZM149.742 8.58203V19.5H147.672V8.58203H149.742ZM150.904 19.5L150.895 17.6641H151.275C151.686 17.6576 152.008 17.5371 152.242 17.3027C152.483 17.0618 152.662 16.6354 152.779 16.0234C152.903 15.4115 152.984 14.5456 153.023 13.4258L153.219 8.58203H160.826V19.5H158.746V10.418H155.172L154.996 14.1387C154.957 15.0371 154.869 15.8216 154.732 16.4922C154.596 17.1628 154.394 17.7227 154.127 18.1719C153.86 18.6146 153.518 18.9466 153.102 19.168C152.685 19.3893 152.177 19.5 151.578 19.5H150.904ZM166.012 19.7344C165.322 19.7344 164.697 19.6074 164.137 19.3535C163.577 19.0931 163.134 18.7155 162.809 18.2207C162.483 17.7259 162.32 17.1237 162.32 16.4141C162.32 15.7956 162.438 15.291 162.672 14.9004C162.913 14.5033 163.235 14.1875 163.639 13.9531C164.042 13.7188 164.492 13.543 164.986 13.4258C165.481 13.3086 165.989 13.2174 166.51 13.1523C167.167 13.0807 167.698 13.0189 168.102 12.9668C168.505 12.9147 168.798 12.8333 168.98 12.7227C169.169 12.6055 169.264 12.4199 169.264 12.166V12.1172C169.264 11.4987 169.088 11.0202 168.736 10.6816C168.391 10.3431 167.877 10.1738 167.193 10.1738C166.484 10.1738 165.921 10.3301 165.504 10.6426C165.094 10.9486 164.811 11.2969 164.654 11.6875L162.652 11.2285C162.893 10.5645 163.242 10.0306 163.697 9.62695C164.16 9.2168 164.687 8.91732 165.279 8.72852C165.878 8.53971 166.503 8.44531 167.154 8.44531C167.59 8.44531 168.053 8.4974 168.541 8.60156C169.029 8.69922 169.488 8.88477 169.918 9.1582C170.354 9.42513 170.709 9.80924 170.982 10.3105C171.256 10.8118 171.393 11.4596 171.393 12.2539V19.5H169.312V18.0059H169.234C169.104 18.2728 168.899 18.5397 168.619 18.8066C168.346 19.0736 167.994 19.2949 167.564 19.4707C167.135 19.6465 166.617 19.7344 166.012 19.7344ZM166.471 18.0352C167.063 18.0352 167.568 17.9212 167.984 17.6934C168.401 17.459 168.72 17.153 168.941 16.7754C169.163 16.3978 169.273 15.9974 169.273 15.5742V14.1582C169.195 14.2298 169.049 14.2982 168.834 14.3633C168.619 14.4284 168.375 14.4837 168.102 14.5293C167.828 14.5749 167.561 14.6172 167.301 14.6562C167.04 14.6888 166.822 14.7148 166.646 14.7344C166.236 14.793 165.862 14.8841 165.523 15.0078C165.185 15.125 164.911 15.3008 164.703 15.5352C164.501 15.763 164.4 16.0658 164.4 16.4434C164.4 16.9707 164.596 17.3678 164.986 17.6348C165.377 17.9017 165.872 18.0352 166.471 18.0352ZM175.494 16.5117L180.309 8.58203H182.594V19.5H180.523V11.5605L175.729 19.5H173.434V8.58203H175.494V16.5117ZM177.994 7.3125C177.063 7.3125 176.308 7.05859 175.729 6.55078C175.149 6.03646 174.859 5.36914 174.859 4.54883H176.607C176.607 4.96549 176.734 5.30404 176.988 5.56445C177.242 5.81836 177.577 5.94531 177.994 5.94531C178.411 5.94531 178.746 5.81836 179 5.56445C179.254 5.30404 179.381 4.96549 179.381 4.54883H181.129C181.129 5.36914 180.839 6.03646 180.26 6.55078C179.68 7.05859 178.925 7.3125 177.994 7.3125ZM192.008 13.123V14.959H186.1V13.123H192.008ZM186.686 8.58203V19.5H184.625V8.58203H186.686ZM193.492 8.58203V19.5H191.422V8.58203H193.492Z" fill="#273E4B" fill-opacity="0.5"/>
</svg>
