<svg width="30" height="30" viewBox="0 0 30 30" fill="none" xmlns="http://www.w3.org/2000/svg">
<mask id="mask0_29_1750" style="mask-type:alpha" maskUnits="userSpaceOnUse" x="0" y="0" width="30" height="30">
<rect width="30" height="30" fill="#D9D9D9"/>
</mask>
<g mask="url(#mask0_29_1750)">
<path d="M13.4256 18.4375H16.5744L15.8678 14.4903C16.2603 14.322 16.5764 14.058 16.8159 13.6984C17.0555 13.3386 17.1753 12.9391 17.1753 12.5C17.1753 11.9006 16.9626 11.3882 16.5372 10.9628C16.1118 10.5374 15.5994 10.3247 15 10.3247C14.4006 10.3247 13.8882 10.5374 13.4628 10.9628C13.0374 11.3882 12.8247 11.9006 12.8247 12.5C12.8247 12.9391 12.9445 13.3386 13.1841 13.6984C13.4236 14.058 13.7397 14.322 14.1322 14.4903L13.4256 18.4375ZM15 26.8509C12.2965 26.1136 10.0581 24.5223 8.285 22.0768C6.51167 19.6314 5.625 16.8975 5.625 13.875V6.68278L15 3.1731L24.375 6.68278V13.875C24.375 16.8975 23.4883 19.6314 21.715 22.0768C19.9419 24.5223 17.7035 26.1136 15 26.8509ZM15 24.875C17.1667 24.1875 18.9583 22.8125 20.375 20.75C21.7917 18.6875 22.5 16.3958 22.5 13.875V7.96872L15 5.1681L7.5 7.96872V13.875C7.5 16.3958 8.20833 18.6875 9.625 20.75C11.0417 22.8125 12.8333 24.1875 15 24.875Z" fill="#273E4B"/>
</g>
</svg>
